<svg 
 xmlns="http://www.w3.org/2000/svg"
 xmlns:xlink="http://www.w3.org/1999/xlink"
 width="314px" height="60px">
<defs>
<filter id="Filter_0">
    <feFlood flood-color="rgb(255, 255, 255)" flood-opacity="1" result="floodOut" />
    <feComposite operator="atop" in="floodOut" in2="SourceGraphic" result="compOut" />
    <feBlend mode="normal" in="compOut" in2="SourceGraphic" />
</filter>
<linearGradient id="PSgrad_0" x1="76.604%" x2="0%" y1="64.279%" y2="0%">
  <stop offset="0%" stop-color="rgb(255,94,58)" stop-opacity="1" />
  <stop offset="100%" stop-color="rgb(255,149,0)" stop-opacity="1" />
</linearGradient>

</defs>
<path fill-rule="evenodd"  fill="rgb(133, 200, 117)"
 d="M0.000,-0.000 L314.000,-0.000 L314.000,60.000 L0.000,60.000 L0.000,-0.000 Z"/>
<g filter="url(#Filter_0)">
<path fill-rule="evenodd"  fill="rgb(255, 255, 255)"
 d="M51.876,14.719 L49.082,24.907 C49.082,24.907 48.237,26.855 52.023,27.904 C52.023,27.904 55.405,27.942 55.552,27.904 C55.699,27.867 58.602,27.043 58.639,24.458 L60.109,14.719 L51.876,14.719 Z"/>
<path fill="url(#PSgrad_0)"
 d="M51.876,14.719 L49.082,24.907 C49.082,24.907 48.237,26.855 52.023,27.904 C52.023,27.904 55.405,27.942 55.552,27.904 C55.699,27.867 58.602,27.043 58.639,24.458 L60.109,14.719 L51.876,14.719 Z"/>
<path fill-rule="evenodd"  fill="rgb(255, 255, 255)"
 d="M61.286,14.869 L59.815,25.507 C59.815,25.507 60.146,27.530 63.197,27.904 C63.197,27.904 65.586,28.017 66.579,27.754 C66.579,27.754 68.931,27.492 69.519,25.058 L69.519,14.869 L61.286,14.869 Z"/>
<path fill="url(#PSgrad_0)"
 d="M61.286,14.869 L59.815,25.507 C59.815,25.507 60.146,27.530 63.197,27.904 C63.197,27.904 65.586,28.017 66.579,27.754 C66.579,27.754 68.931,27.492 69.519,25.058 L69.519,14.869 L61.286,14.869 Z"/>
<path fill-rule="evenodd"  fill="rgb(255, 255, 255)"
 d="M70.695,14.869 L70.695,25.507 C70.695,25.507 71.210,27.567 74.371,27.904 L77.459,27.904 C77.459,27.904 80.877,27.043 80.105,24.458 L78.782,14.869 L70.695,14.869 Z"/>
<path fill="url(#PSgrad_0)"
 d="M70.695,14.869 L70.695,25.507 C70.695,25.507 71.210,27.567 74.371,27.904 L77.459,27.904 C77.459,27.904 80.877,27.043 80.105,24.458 L78.782,14.869 L70.695,14.869 Z"/>
<path fill-rule="evenodd"  fill="rgb(255, 255, 255)"
 d="M79.958,14.869 L81.428,25.657 C81.428,25.657 81.759,27.417 84.957,27.904 L88.045,27.904 C88.045,27.904 91.684,27.005 90.838,24.308 L88.045,14.869 L79.958,14.869 Z"/>
<path fill="url(#PSgrad_0)"
 d="M79.958,14.869 L81.428,25.657 C81.428,25.657 81.759,27.417 84.957,27.904 L88.045,27.904 C88.045,27.904 91.684,27.005 90.838,24.308 L88.045,14.869 L79.958,14.869 Z"/>
<path fill-rule="evenodd"  fill="rgb(255, 255, 255)"
 d="M65.991,49.991 L65.991,33.509 L55.405,33.509 L55.405,49.841 L50.553,49.841 L50.553,29.464 C53.493,30.100 55.699,29.613 55.699,29.613 C59.007,29.276 59.227,26.467 59.227,26.467 C59.411,29.127 62.609,29.764 62.609,29.764 L66.432,29.764 C69.519,29.276 70.107,26.917 70.107,26.917 C70.328,28.939 73.342,29.764 73.342,29.764 L77.312,29.764 C80.436,29.051 80.840,26.917 80.840,26.917 C82.200,31.149 89.368,29.464 89.368,29.464 L89.368,49.991 L65.991,49.991 ZM84.663,33.509 L71.284,33.509 L71.284,44.447 L84.663,44.447 L84.663,33.509 Z"/>
<path fill="url(#PSgrad_0)"
 d="M65.991,49.991 L65.991,33.509 L55.405,33.509 L55.405,49.841 L50.553,49.841 L50.553,29.464 C53.493,30.100 55.699,29.613 55.699,29.613 C59.007,29.276 59.227,26.467 59.227,26.467 C59.411,29.127 62.609,29.764 62.609,29.764 L66.432,29.764 C69.519,29.276 70.107,26.917 70.107,26.917 C70.328,28.939 73.342,29.764 73.342,29.764 L77.312,29.764 C80.436,29.051 80.840,26.917 80.840,26.917 C82.200,31.149 89.368,29.464 89.368,29.464 L89.368,49.991 L65.991,49.991 ZM84.663,33.509 L71.284,33.509 L71.284,44.447 L84.663,44.447 L84.663,33.509 Z"/>
</g>
<text kerning="auto" font-family="Myriad Pro" fill="rgb(0, 0, 0)" transform="matrix( 0.97584710143726, 0, 0, 0.95330112721417,107.783397449194, 32.9334106280193)" font-size="28px"><tspan font-size="28px" font-family="OpenSans" font-weight="bold" fill="#FFFFFF">Shopp&#233;r</tspan></text>
<text kerning="auto" font-family="Myriad Pro" fill="rgb(0, 0, 0)" transform="matrix( 0.97584710143726, 0, 0, 0.95330112721417,106.057490210815, 49.7898550724638)" font-size="12.588px"><tspan font-size="12.588px" font-family="Roboto" fill="#FFFFFF">Buy&#32;with&#32;happiness</tspan></text>
</svg>